<svg width="794" height="339" viewBox="0 0 794 339" fill="none" xmlns="http://www.w3.org/2000/svg">
<path d="M458.146 158.703C415.552 218.24 374.408 279.227 333.751 338.764H330.847C296.472 281.406 254.122 215.573 213.945 158.703C221.209 159.184 226.53 159.428 231.857 159.428C237.185 159.428 242.749 159.184 250.006 158.703C277.598 209.284 309.544 261.314 340.521 308.267C371.741 262.526 407.07 208.073 438.054 158.703C440.233 159.184 444.106 159.184 447.979 159.184C451.85 159.184 455.966 159.184 458.146 158.703ZM131.185 158.703C137.961 158.703 141.108 159.428 144.256 166.447H144.25C177.887 224.286 208.383 273.662 248.072 333.193C240.572 332.712 235.488 332.468 230.648 332.468C225.565 332.468 220.724 332.712 213.224 333.193C203.543 315.524 193.862 297.856 183.938 280.194H54.2158C42.8432 298.343 31.7081 316.499 21.7842 333.193C19.3608 332.712 15.251 332.468 10.8916 332.468C6.5323 332.468 2.17965 332.712 0 333.193C36.0673 282.374 79.6287 218.965 113.997 166.204C110.369 162.813 105.285 161.608 97.541 161.12V158.703C102.625 158.703 111.093 159.428 116.177 159.428C121.741 159.428 128.037 158.703 131.185 158.703ZM517.909 158.703C516.698 174.679 515.249 186.295 515.249 244.858C515.249 292.291 516.941 316.98 517.909 333.193C512.826 332.949 507.261 332.225 502.178 332.225C497.094 332.225 491.529 332.949 486.445 333.193C487.413 316.98 489.105 292.291 489.105 244.858C489.105 186.289 487.65 174.672 486.445 158.703C491.529 158.947 497.094 159.671 502.178 159.671C507.261 159.671 512.826 158.947 517.909 158.703ZM676.428 158.703C683.204 158.703 686.352 159.428 689.5 166.447H689.493C723.131 224.286 753.627 273.662 793.316 333.193C785.816 332.712 780.732 332.468 775.892 332.468C770.808 332.468 765.967 332.712 758.467 333.193C748.787 315.524 739.107 297.856 729.183 280.194H599.466C588.093 298.343 576.958 316.499 567.034 333.193C564.617 332.712 560.501 332.468 556.142 332.468C551.782 332.468 547.43 332.712 545.25 333.193C581.311 282.368 624.872 218.965 659.24 166.204C655.612 162.813 650.528 161.608 642.784 161.12V158.703C647.868 158.703 656.336 159.428 661.42 159.428C666.984 159.428 673.28 158.703 676.428 158.703ZM121.254 176.852C102.618 204.924 82.2895 236.145 62.4482 267.122H176.438C159.014 237.357 140.865 207.348 121.261 176.852H121.254ZM666.504 176.852C647.868 204.924 627.539 236.145 607.698 267.122H721.688C704.264 237.357 686.115 207.348 666.511 176.852H666.504Z" fill="url(#paint0_linear_1_613)"/>
<mask id="path-2-inside-1_1_613" fill="white">
<path d="M158.729 0.431152C158.81 0.0640796 159.052 -0.119026 159.57 0.0844727C160.545 0.685706 161.522 1.28403 162.499 1.88135C165.189 3.52576 167.887 5.15671 170.593 6.77393C171.748 7.46443 172.905 8.15236 174.063 8.83838C175.536 9.71037 177.01 10.5786 178.486 11.4438C185.737 15.6938 193.035 19.8666 200.359 23.9956C226.58 38.7771 253.14 53.0045 279.087 68.2554L345.281 164.716C345.56 165.044 345.719 165.226 345.843 165.286C345.884 165.306 345.922 165.313 345.959 165.306C346.033 165.293 346.103 165.229 346.197 165.122L346.572 164.676C348.989 161.937 352.505 156.195 354.836 152.856C356.234 150.852 357.486 148.719 358.803 146.618C358.902 146.46 359.001 146.302 359.101 146.144C359.196 145.993 359.294 145.843 359.391 145.692C359.53 145.474 359.671 145.258 359.812 145.042C360.123 144.569 360.437 144.099 360.763 143.636C360.848 143.515 360.97 143.41 361.092 143.305C361.183 143.226 361.275 143.148 361.352 143.064C361.377 143.036 361.401 143.008 361.422 142.978C362.025 142.016 362.629 141.055 363.236 140.095C363.366 139.89 363.496 139.686 363.626 139.481C364.117 138.707 364.61 137.933 365.104 137.161C365.271 136.899 365.438 136.636 365.605 136.375C366.787 134.53 367.975 132.689 369.17 130.852C369.267 130.703 369.364 130.554 369.461 130.405C369.89 129.747 370.32 129.089 370.75 128.432C372.499 125.76 374.259 123.094 376.028 120.435C376.127 120.287 376.225 120.138 376.324 119.99L377.338 118.469C377.608 118.064 377.88 117.66 378.151 117.254C378.986 116.006 379.822 114.759 380.66 113.512C381.104 112.852 381.547 112.191 381.991 111.532C383.03 109.99 384.071 108.449 385.112 106.909C387.969 102.684 390.832 98.4664 393.689 94.2476C397.654 88.3987 401.511 82.4576 405.459 76.5854C406.377 75.2204 407.298 73.858 408.229 72.5024C408.581 71.9893 408.934 71.4767 409.288 70.9653C409.643 70.4538 409.999 69.9436 410.356 69.4341L412.942 68.0718L422.006 63.2964V63.2837L531.979 0.0717773L531.75 1.30322C531.356 3.34245 530.897 5.3148 530.374 7.22412C530.098 8.23091 529.803 9.21944 529.492 10.1919C522.973 30.611 508.832 43.5963 489.623 54.8413C488.645 55.4139 487.665 55.9827 486.682 56.5483C485.699 57.1138 484.713 57.6756 483.726 58.2349C479.774 60.4722 475.786 62.6627 471.782 64.8315C467.778 67.0004 463.759 69.1479 459.743 71.2974C456.731 72.9095 453.721 74.5225 450.723 76.1479C448.724 77.2315 446.73 78.3213 444.743 79.4185C443.75 79.9671 442.758 80.5176 441.769 81.0708C441.161 81.4108 440.551 81.747 439.939 82.0815C438.109 83.0831 436.263 84.0644 434.42 85.0503C431.954 86.3692 429.491 87.6965 427.07 89.0913C426.513 89.7919 425.941 90.5188 425.354 91.27C422.582 94.8236 419.504 98.9191 416.273 103.31C416.184 103.432 416.095 103.553 416.005 103.675C408.285 114.18 399.73 126.329 392.441 136.807C390.193 140.04 388.065 143.113 386.12 145.93C382.497 151.177 379.503 155.533 377.545 158.372C376.577 159.775 375.862 160.808 375.446 161.393C375.355 161.522 375.279 161.631 375.217 161.715L375.047 161.937C375.053 161.93 375.058 161.927 375.061 161.925C375.062 161.924 375.062 161.924 375.062 161.926C375.369 161.823 354.164 196.452 348.511 206.24C348.129 206.9 347.815 207.446 347.587 207.862C347.477 208.062 347.387 208.232 347.316 208.37L339.427 196.984V196.964L303.876 145.279L265.948 90.1382C243.101 73.6717 206.637 62.0307 183.254 42.2749L182.563 41.6851C182.334 41.4878 182.106 41.2902 181.88 41.0913C181.427 40.6937 180.981 40.2924 180.539 39.8882C179.656 39.0796 178.794 38.2578 177.957 37.4214C176.491 35.9573 175.099 34.4493 173.788 32.8931C173.039 32.0039 172.318 31.0986 171.624 30.1772C171.45 29.9467 171.278 29.7155 171.108 29.4829C170.769 29.0181 170.436 28.549 170.111 28.0757C169.786 27.6024 169.468 27.125 169.158 26.6431C168.693 25.9201 168.246 25.1869 167.815 24.4438C167.579 24.035 167.346 23.6233 167.116 23.2095C166.887 22.7959 166.661 22.3797 166.438 21.9614C165.993 21.1246 165.561 20.2787 165.144 19.4243C164.308 17.7154 163.53 15.9734 162.812 14.2065C162.093 12.4397 161.436 10.6479 160.842 8.83936C160.545 7.935 160.264 7.02647 159.999 6.11475C159.734 5.20318 159.486 4.28848 159.255 3.37158C159.214 3.21358 159.109 2.88799 159.001 2.49951C158.947 2.30505 158.893 2.09462 158.845 1.88135C158.821 1.77511 158.799 1.66809 158.779 1.56201C158.701 1.13636 158.663 0.724775 158.729 0.431152ZM213.839 115.313C231.441 123.084 249.571 130.097 266.844 138.368H266.857L281.996 144.617C280.317 145.815 277.137 146.165 275.108 146.296C266.745 146.83 255.557 145.005 247.767 141.976C243.42 140.284 237.856 137.551 234.583 134.417C226.312 129.504 218.923 123.202 212.852 115.649L213.839 115.313ZM479.957 115.649C473.885 123.202 466.496 129.504 458.226 134.417C454.953 137.551 449.388 140.284 445.042 141.976C437.252 145.005 426.063 146.83 417.7 146.296C415.672 146.165 412.492 145.815 410.812 144.617L425.952 138.368H425.965C443.238 130.097 461.367 123.084 478.97 115.313L479.957 115.649ZM306.782 7.32666C309.719 8.72268 312.142 10.02 315.343 10.9419C318.379 11.8177 321.434 12.1991 324.556 12.5942C326.788 12.8774 328.875 13.1415 331.141 13.2534C331.575 13.2732 332.023 13.2337 332.458 13.2534C342.105 13.6419 351.173 12.4889 360.774 14.5698C367.373 16.0054 370.83 17.6453 375.262 22.8013C376.045 23.7166 376.527 25.693 377.225 26.1079C378.253 26.7203 384.245 27.4705 386.635 28.5503C393.312 31.5663 397.428 37.829 397.02 45.2241C396.657 51.8028 394.774 47.4696 391.652 45.9155C383.289 41.7474 369.23 44.0653 363.929 52.3032C356.04 64.5583 360.754 79.8235 372.002 87.9497L376.54 90.5835C370.007 100.396 363.599 110.293 356.816 119.927L345.299 137.042C331.325 116.905 317.608 96.5632 304.332 75.9712H304.346C302.436 73.0144 300.546 72.5465 300.164 68.2661C299.427 60.0741 302.528 49.4913 306.124 42.2212C309.957 34.4706 315.034 29.288 321.257 23.4536C314.507 20.0162 308.613 14.8863 306.782 7.32666ZM182.699 56.2407C182.469 55.2661 182.166 54.4688 183.542 54.7388C203.37 66.9412 224.153 77.6293 244.008 89.7593C254.669 96.2721 260.471 101.053 268.439 110.766C269.949 112.605 287.2 135.447 285.956 136.376C284.58 136.574 283.473 136.29 282.188 135.869C274.128 133.234 261.168 124.8 253.029 120.579C246.516 117.2 239.694 114.23 233.273 110.701C210.838 98.3534 188.889 82.7395 182.699 56.2407ZM509.274 54.7388C510.651 54.4688 510.348 55.2661 510.117 56.2407C503.927 82.7395 481.979 98.3534 459.543 110.701C453.122 114.23 446.3 117.2 439.787 120.579C431.648 124.8 418.688 133.234 410.628 135.869C409.344 136.29 408.237 136.574 406.861 136.376C405.617 135.448 422.87 112.603 424.378 110.766C432.346 101.053 438.147 96.272 448.809 89.7593C468.663 77.6293 489.446 66.9412 509.274 54.7388Z"/>
</mask>
<path d="M158.729 0.431152C158.81 0.0640796 159.052 -0.119026 159.57 0.0844727C160.545 0.685706 161.522 1.28403 162.499 1.88135C165.189 3.52576 167.887 5.15671 170.593 6.77393C171.748 7.46443 172.905 8.15236 174.063 8.83838C175.536 9.71037 177.01 10.5786 178.486 11.4438C185.737 15.6938 193.035 19.8666 200.359 23.9956C226.58 38.7771 253.14 53.0045 279.087 68.2554L345.281 164.716C345.56 165.044 345.719 165.226 345.843 165.286C345.884 165.306 345.922 165.313 345.959 165.306C346.033 165.293 346.103 165.229 346.197 165.122L346.572 164.676C348.989 161.937 352.505 156.195 354.836 152.856C356.234 150.852 357.486 148.719 358.803 146.618C358.902 146.46 359.001 146.302 359.101 146.144C359.196 145.993 359.294 145.843 359.391 145.692C359.53 145.474 359.671 145.258 359.812 145.042C360.123 144.569 360.437 144.099 360.763 143.636C360.848 143.515 360.97 143.41 361.092 143.305C361.183 143.226 361.275 143.148 361.352 143.064C361.377 143.036 361.401 143.008 361.422 142.978C362.025 142.016 362.629 141.055 363.236 140.095C363.366 139.89 363.496 139.686 363.626 139.481C364.117 138.707 364.61 137.933 365.104 137.161C365.271 136.899 365.438 136.636 365.605 136.375C366.787 134.53 367.975 132.689 369.17 130.852C369.267 130.703 369.364 130.554 369.461 130.405C369.89 129.747 370.32 129.089 370.75 128.432C372.499 125.76 374.259 123.094 376.028 120.435C376.127 120.287 376.225 120.138 376.324 119.99L377.338 118.469C377.608 118.064 377.88 117.66 378.151 117.254C378.986 116.006 379.822 114.759 380.66 113.512C381.104 112.852 381.547 112.191 381.991 111.532C383.03 109.99 384.071 108.449 385.112 106.909C387.969 102.684 390.832 98.4664 393.689 94.2476C397.654 88.3987 401.511 82.4576 405.459 76.5854C406.377 75.2204 407.298 73.858 408.229 72.5024C408.581 71.9893 408.934 71.4767 409.288 70.9653C409.643 70.4538 409.999 69.9436 410.356 69.4341L412.942 68.0718L422.006 63.2964V63.2837L531.979 0.0717773L531.75 1.30322C531.356 3.34245 530.897 5.3148 530.374 7.22412C530.098 8.23091 529.803 9.21944 529.492 10.1919C522.973 30.611 508.832 43.5963 489.623 54.8413C488.645 55.4139 487.665 55.9827 486.682 56.5483C485.699 57.1138 484.713 57.6756 483.726 58.2349C479.774 60.4722 475.786 62.6627 471.782 64.8315C467.778 67.0004 463.759 69.1479 459.743 71.2974C456.731 72.9095 453.721 74.5225 450.723 76.1479C448.724 77.2315 446.73 78.3213 444.743 79.4185C443.75 79.9671 442.758 80.5176 441.769 81.0708C441.161 81.4108 440.551 81.747 439.939 82.0815C438.109 83.0831 436.263 84.0644 434.42 85.0503C431.954 86.3692 429.491 87.6965 427.07 89.0913C426.513 89.7919 425.941 90.5188 425.354 91.27C422.582 94.8236 419.504 98.9191 416.273 103.31C416.184 103.432 416.095 103.553 416.005 103.675C408.285 114.18 399.73 126.329 392.441 136.807C390.193 140.04 388.065 143.113 386.12 145.93C382.497 151.177 379.503 155.533 377.545 158.372C376.577 159.775 375.862 160.808 375.446 161.393C375.355 161.522 375.279 161.631 375.217 161.715L375.047 161.937C375.053 161.93 375.058 161.927 375.061 161.925C375.062 161.924 375.062 161.924 375.062 161.926C375.369 161.823 354.164 196.452 348.511 206.24C348.129 206.9 347.815 207.446 347.587 207.862C347.477 208.062 347.387 208.232 347.316 208.37L339.427 196.984V196.964L303.876 145.279L265.948 90.1382C243.101 73.6717 206.637 62.0307 183.254 42.2749L182.563 41.6851C182.334 41.4878 182.106 41.2902 181.88 41.0913C181.427 40.6937 180.981 40.2924 180.539 39.8882C179.656 39.0796 178.794 38.2578 177.957 37.4214C176.491 35.9573 175.099 34.4493 173.788 32.8931C173.039 32.0039 172.318 31.0986 171.624 30.1772C171.45 29.9467 171.278 29.7155 171.108 29.4829C170.769 29.0181 170.436 28.549 170.111 28.0757C169.786 27.6024 169.468 27.125 169.158 26.6431C168.693 25.9201 168.246 25.1869 167.815 24.4438C167.579 24.035 167.346 23.6233 167.116 23.2095C166.887 22.7959 166.661 22.3797 166.438 21.9614C165.993 21.1246 165.561 20.2787 165.144 19.4243C164.308 17.7154 163.53 15.9734 162.812 14.2065C162.093 12.4397 161.436 10.6479 160.842 8.83936C160.545 7.935 160.264 7.02647 159.999 6.11475C159.734 5.20318 159.486 4.28848 159.255 3.37158C159.214 3.21358 159.109 2.88799 159.001 2.49951C158.947 2.30505 158.893 2.09462 158.845 1.88135C158.821 1.77511 158.799 1.66809 158.779 1.56201C158.701 1.13636 158.663 0.724775 158.729 0.431152ZM213.839 115.313C231.441 123.084 249.571 130.097 266.844 138.368H266.857L281.996 144.617C280.317 145.815 277.137 146.165 275.108 146.296C266.745 146.83 255.557 145.005 247.767 141.976C243.42 140.284 237.856 137.551 234.583 134.417C226.312 129.504 218.923 123.202 212.852 115.649L213.839 115.313ZM479.957 115.649C473.885 123.202 466.496 129.504 458.226 134.417C454.953 137.551 449.388 140.284 445.042 141.976C437.252 145.005 426.063 146.83 417.7 146.296C415.672 146.165 412.492 145.815 410.812 144.617L425.952 138.368H425.965C443.238 130.097 461.367 123.084 478.97 115.313L479.957 115.649ZM306.782 7.32666C309.719 8.72268 312.142 10.02 315.343 10.9419C318.379 11.8177 321.434 12.1991 324.556 12.5942C326.788 12.8774 328.875 13.1415 331.141 13.2534C331.575 13.2732 332.023 13.2337 332.458 13.2534C342.105 13.6419 351.173 12.4889 360.774 14.5698C367.373 16.0054 370.83 17.6453 375.262 22.8013C376.045 23.7166 376.527 25.693 377.225 26.1079C378.253 26.7203 384.245 27.4705 386.635 28.5503C393.312 31.5663 397.428 37.829 397.02 45.2241C396.657 51.8028 394.774 47.4696 391.652 45.9155C383.289 41.7474 369.23 44.0653 363.929 52.3032C356.04 64.5583 360.754 79.8235 372.002 87.9497L376.54 90.5835C370.007 100.396 363.599 110.293 356.816 119.927L345.299 137.042C331.325 116.905 317.608 96.5632 304.332 75.9712H304.346C302.436 73.0144 300.546 72.5465 300.164 68.2661C299.427 60.0741 302.528 49.4913 306.124 42.2212C309.957 34.4706 315.034 29.288 321.257 23.4536C314.507 20.0162 308.613 14.8863 306.782 7.32666ZM182.699 56.2407C182.469 55.2661 182.166 54.4688 183.542 54.7388C203.37 66.9412 224.153 77.6293 244.008 89.7593C254.669 96.2721 260.471 101.053 268.439 110.766C269.949 112.605 287.2 135.447 285.956 136.376C284.58 136.574 283.473 136.29 282.188 135.869C274.128 133.234 261.168 124.8 253.029 120.579C246.516 117.2 239.694 114.23 233.273 110.701C210.838 98.3534 188.889 82.7395 182.699 56.2407ZM509.274 54.7388C510.651 54.4688 510.348 55.2661 510.117 56.2407C503.927 82.7395 481.979 98.3534 459.543 110.701C453.122 114.23 446.3 117.2 439.787 120.579C431.648 124.8 418.688 133.234 410.628 135.869C409.344 136.29 408.237 136.574 406.861 136.376C405.617 135.448 422.87 112.603 424.378 110.766C432.346 101.053 438.147 96.272 448.809 89.7593C468.663 77.6293 489.446 66.9412 509.274 54.7388Z" fill="url(#paint1_linear_1_613)"/>
<path d="M158.729 0.431152L159.371 0.574389L159.371 0.574196L158.729 0.431152ZM159.57 0.0844727L159.916 -0.475991L159.866 -0.506966L159.811 -0.528522L159.57 0.0844727ZM162.499 1.88135L162.156 2.44319L162.156 2.44319L162.499 1.88135ZM170.593 6.77393L170.931 6.20865L170.931 6.20865L170.593 6.77393ZM174.063 8.83838L173.728 9.40497L173.728 9.40497L174.063 8.83838ZM178.486 11.4438L178.819 10.8757L178.819 10.8757L178.486 11.4438ZM200.359 23.9956L200.036 24.5693L200.359 23.9956ZM279.087 68.2554L279.63 67.8828L279.547 67.7619L279.421 67.6877L279.087 68.2554ZM345.281 164.716L344.738 165.089L344.757 165.117L344.779 165.143L345.281 164.716ZM345.843 165.286L345.556 165.879L345.557 165.879L345.843 165.286ZM345.959 165.306L346.073 165.955L346.073 165.955L345.959 165.306ZM346.197 165.122L346.693 165.555L346.701 165.546L346.197 165.122ZM346.572 164.676L346.078 164.241L346.073 164.246L346.069 164.252L346.572 164.676ZM354.836 152.856L355.376 153.233L355.376 153.233L354.836 152.856ZM358.803 146.618L359.361 146.967L359.361 146.967L358.803 146.618ZM359.101 146.144L358.544 145.792V145.792L359.101 146.144ZM359.391 145.692L359.945 146.048L359.945 146.048L359.391 145.692ZM359.812 145.042L359.262 144.68V144.68L359.812 145.042ZM360.763 143.636L360.224 143.258L360.224 143.258L360.763 143.636ZM361.092 143.305L361.521 143.805L361.521 143.805L361.092 143.305ZM361.352 143.064L361.84 143.506L361.84 143.506L361.352 143.064ZM361.422 142.978L361.956 143.364L361.968 143.346L361.98 143.328L361.422 142.978ZM363.236 140.095L363.793 140.447L363.236 140.095ZM363.626 139.481L363.07 139.128L363.626 139.481ZM365.104 137.161L365.658 137.515L365.104 137.161ZM365.605 136.375L365.051 136.019L365.605 136.375ZM369.17 130.852L369.722 131.211L369.17 130.852ZM369.461 130.405L368.909 130.045L369.461 130.405ZM370.75 128.432L371.301 128.793L370.75 128.432ZM376.028 120.435L375.48 120.07H375.48L376.028 120.435ZM376.324 119.99L375.776 119.624L375.776 119.625L376.324 119.99ZM377.338 118.469L376.79 118.104L376.79 118.104L377.338 118.469ZM378.151 117.254L377.604 116.888L378.151 117.254ZM380.66 113.512L381.207 113.88V113.88L380.66 113.512ZM381.991 111.532L381.445 111.164L381.991 111.532ZM385.112 106.909L385.658 107.278L385.112 106.909ZM393.689 94.2476L393.144 93.8781L393.144 93.8783L393.689 94.2476ZM405.459 76.5854L406.005 76.9529L406.005 76.9529L405.459 76.5854ZM408.229 72.5024L407.686 72.1298V72.1298L408.229 72.5024ZM409.288 70.9653L409.829 71.3405L409.288 70.9653ZM410.356 69.4341L410.05 68.8515L409.909 68.9257L409.817 69.056L410.356 69.4341ZM412.942 68.0718L413.249 68.6544L413.249 68.6544L412.942 68.0718ZM422.006 63.2964L422.313 63.879L422.664 63.6938V63.2964H422.006ZM422.006 63.2837L421.678 62.7128L421.347 62.9026V63.2837H422.006ZM531.979 0.0717773L532.627 0.192423L532.888 -1.21013L531.651 -0.499153L531.979 0.0717773ZM531.75 1.30322L532.397 1.4283L532.397 1.42387L531.75 1.30322ZM530.374 7.22412L531.009 7.39801V7.39801L530.374 7.22412ZM529.492 10.1919L528.865 9.99159V9.9916L529.492 10.1919ZM489.623 54.8413L489.29 54.273L489.29 54.2731L489.623 54.8413ZM486.682 56.5483L486.353 55.9775L486.682 56.5483ZM483.726 58.2349L484.05 58.8079V58.8079L483.726 58.2349ZM471.782 64.8315L471.469 64.2525H471.469L471.782 64.8315ZM459.743 71.2974L460.054 71.878V71.8779L459.743 71.2974ZM450.723 76.1479L450.409 75.569L450.723 76.1479ZM444.743 79.4185L445.061 79.9949V79.9949L444.743 79.4185ZM441.769 81.0708L441.447 80.496L441.447 80.4961L441.769 81.0708ZM439.939 82.0815L439.623 81.5038L439.939 82.0815ZM434.42 85.0503L434.73 85.631V85.631L434.42 85.0503ZM427.07 89.0913L426.742 88.5208L426.633 88.5833L426.555 88.6814L427.07 89.0913ZM425.354 91.27L424.835 90.865L425.354 91.27ZM416.273 103.31L415.743 102.92L416.273 103.31ZM416.005 103.675L416.536 104.065L416.005 103.675ZM392.441 136.807L391.901 136.431V136.431L392.441 136.807ZM386.12 145.93L386.662 146.304L386.12 145.93ZM377.545 158.372L377.003 157.998L377.545 158.372ZM375.446 161.393L375.983 161.774L375.446 161.393ZM375.217 161.715L375.739 162.116L375.744 162.11L375.749 162.104L375.217 161.715ZM375.047 161.937L374.524 161.536L375.527 162.388L375.047 161.937ZM375.061 161.925L375.326 162.528L375.339 162.522L375.352 162.516L375.061 161.925ZM375.062 161.926L374.404 161.898L374.363 162.855L375.271 162.551L375.062 161.926ZM348.511 206.24L347.94 205.91L347.94 205.91L348.511 206.24ZM347.587 207.862L348.164 208.179L348.164 208.179L347.587 207.862ZM347.316 208.37L346.775 208.745L347.4 209.647L347.902 208.671L347.316 208.37ZM339.427 196.984H338.768V197.19L338.885 197.359L339.427 196.984ZM339.427 196.964H340.085V196.76L339.969 196.591L339.427 196.964ZM303.876 145.279L304.419 144.906L303.876 145.279ZM265.948 90.1382L266.491 89.765L266.426 89.6708L266.333 89.604L265.948 90.1382ZM183.254 42.2749L182.826 42.7756L182.829 42.7779L183.254 42.2749ZM182.563 41.6851L182.134 42.184L182.136 42.1857L182.563 41.6851ZM181.88 41.0913L181.445 41.586L181.445 41.586L181.88 41.0913ZM180.539 39.8882L180.984 39.4025H180.984L180.539 39.8882ZM177.957 37.4214L177.492 37.8873L177.492 37.8873L177.957 37.4214ZM173.788 32.8931L174.292 32.4689L174.292 32.4689L173.788 32.8931ZM171.624 30.1772L171.098 30.5733L171.098 30.5733L171.624 30.1772ZM171.108 29.4829L171.64 29.0944L171.64 29.0944L171.108 29.4829ZM170.111 28.0757L169.568 28.4485L169.568 28.4485L170.111 28.0757ZM169.158 26.6431L169.712 26.2868L169.712 26.2868L169.158 26.6431ZM167.815 24.4438L167.245 24.7734L167.245 24.7737L167.815 24.4438ZM167.116 23.2095L167.692 22.89V22.89L167.116 23.2095ZM166.438 21.9614L165.857 22.2708L165.857 22.2708L166.438 21.9614ZM165.144 19.4243L165.735 19.1352L165.735 19.1352L165.144 19.4243ZM162.812 14.2065L162.201 14.4545L162.201 14.4545L162.812 14.2065ZM160.842 8.83936L161.467 8.63387L161.467 8.63386L160.842 8.83936ZM159.999 6.11475L159.367 6.29831L159.367 6.29831L159.999 6.11475ZM159.255 3.37158L159.893 3.21051L159.892 3.20563L159.255 3.37158ZM159.001 2.49951L158.366 2.67538L158.366 2.67544L159.001 2.49951ZM158.845 1.88135L159.487 1.73692L159.487 1.73684L158.845 1.88135ZM158.779 1.56201L158.132 1.68168L158.132 1.68177L158.779 1.56201ZM213.839 115.313L214.105 114.711L213.87 114.607L213.627 114.69L213.839 115.313ZM266.844 138.368L266.559 138.962L266.694 139.026H266.844V138.368ZM266.857 138.368L267.109 137.759L266.988 137.709H266.857V138.368ZM281.996 144.617L282.379 145.153L283.347 144.462L282.247 144.008L281.996 144.617ZM275.108 146.296L275.15 146.954L275.151 146.954L275.108 146.296ZM247.767 141.976L247.528 142.59L247.528 142.59L247.767 141.976ZM234.583 134.417L235.038 133.941L234.984 133.889L234.919 133.85L234.583 134.417ZM212.852 115.649L212.639 115.026L211.749 115.328L212.338 116.062L212.852 115.649ZM479.957 115.649L480.47 116.062L481.06 115.328L480.169 115.026L479.957 115.649ZM458.226 134.417L457.889 133.85L457.825 133.889L457.77 133.941L458.226 134.417ZM445.042 141.976L445.281 142.59L445.281 142.59L445.042 141.976ZM417.7 146.296L417.658 146.954L417.658 146.954L417.7 146.296ZM410.812 144.617L410.561 144.008L409.462 144.462L410.43 145.153L410.812 144.617ZM425.952 138.368V137.709H425.822L425.701 137.759L425.952 138.368ZM425.965 138.368V139.026H426.114L426.249 138.962L425.965 138.368ZM478.97 115.313L479.182 114.69L478.939 114.607L478.704 114.711L478.97 115.313ZM306.782 7.32666L307.065 6.73191L305.817 6.1387L306.142 7.48166L306.782 7.32666ZM315.343 10.9419L315.525 10.3092L315.525 10.3091L315.343 10.9419ZM324.556 12.5942L324.639 11.9409L324.638 11.9409L324.556 12.5942ZM331.141 13.2534L331.108 13.9111L331.111 13.9113L331.141 13.2534ZM332.458 13.2534L332.428 13.9113L332.432 13.9114L332.458 13.2534ZM360.774 14.5698L360.914 13.9264L360.914 13.9262L360.774 14.5698ZM375.262 22.8013L375.762 22.373L375.761 22.372L375.262 22.8013ZM377.225 26.1079L377.562 25.5421L377.561 25.5418L377.225 26.1079ZM386.635 28.5503L386.364 29.1504L386.364 29.1504L386.635 28.5503ZM397.02 45.2241L396.362 45.1878L396.362 45.1879L397.02 45.2241ZM391.652 45.9155L391.359 46.5049L391.359 46.505L391.652 45.9155ZM363.929 52.3032L364.482 52.6597L364.482 52.6596L363.929 52.3032ZM372.002 87.9497L371.616 88.4835L371.643 88.5027L371.671 88.5193L372.002 87.9497ZM376.54 90.5835L377.088 90.9484L377.476 90.3655L376.871 90.0139L376.54 90.5835ZM356.816 119.927L356.278 119.548L356.27 119.56L356.816 119.927ZM345.299 137.042L344.758 137.418L345.307 138.21L345.845 137.41L345.299 137.042ZM304.332 75.9712V75.3127H303.124L303.779 76.328L304.332 75.9712ZM304.346 75.9712V76.6297H305.555L304.899 75.6139L304.346 75.9712ZM300.164 68.2661L300.82 68.2076L300.82 68.2071L300.164 68.2661ZM306.124 42.2212L306.714 42.5131L306.714 42.5131L306.124 42.2212ZM321.257 23.4536L321.707 23.934L322.392 23.2925L321.556 22.8668L321.257 23.4536ZM182.699 56.2407L183.34 56.0909L183.34 56.0892L182.699 56.2407ZM183.542 54.7388L183.887 54.1779L183.786 54.1155L183.669 54.0926L183.542 54.7388ZM244.008 89.7593L243.664 90.3212L243.665 90.3212L244.008 89.7593ZM268.439 110.766L267.93 111.184L267.93 111.184L268.439 110.766ZM285.956 136.376L286.05 137.028L286.216 137.004L286.35 136.904L285.956 136.376ZM282.188 135.869L282.394 135.243L282.393 135.243L282.188 135.869ZM253.029 120.579L252.726 121.163L252.726 121.163L253.029 120.579ZM233.273 110.701L232.956 111.278L232.956 111.278L233.273 110.701ZM509.274 54.7388L509.148 54.0926L509.031 54.1155L508.929 54.1779L509.274 54.7388ZM510.117 56.2407L509.476 56.0892L509.476 56.0909L510.117 56.2407ZM459.543 110.701L459.86 111.278L459.86 111.278L459.543 110.701ZM439.787 120.579L440.09 121.163L440.09 121.163L439.787 120.579ZM410.628 135.869L410.423 135.243L410.423 135.243L410.628 135.869ZM406.861 136.376L406.468 136.904L406.602 137.005L406.768 137.028L406.861 136.376ZM424.378 110.766L424.887 111.184L424.887 111.184L424.378 110.766ZM448.809 89.7593L449.152 90.3212L449.152 90.3212L448.809 89.7593ZM158.729 0.431152L159.371 0.574196C159.38 0.535017 159.386 0.532864 159.375 0.550016C159.369 0.559651 159.358 0.57468 159.34 0.59117C159.322 0.607996 159.3 0.623386 159.275 0.635435C159.223 0.660776 159.188 0.658253 159.193 0.658551C159.202 0.659078 159.244 0.664005 159.33 0.697467L159.57 0.0844727L159.811 -0.528522C159.478 -0.65903 159.073 -0.732108 158.696 -0.547739C158.306 -0.356806 158.148 0.00868334 158.086 0.288108L158.729 0.431152ZM159.57 0.0844727L159.225 0.644936C160.2 1.24688 161.178 1.84575 162.156 2.44319L162.499 1.88135L162.843 1.31951C161.866 0.722308 160.89 0.124535 159.916 -0.475991L159.57 0.0844727ZM162.499 1.88135L162.156 2.44319C164.847 4.08874 167.547 5.72084 170.255 7.3392L170.593 6.77393L170.931 6.20865C168.226 4.59258 165.53 2.96277 162.843 1.31951L162.499 1.88135ZM170.593 6.77393L170.255 7.3392C171.411 8.03021 172.569 8.71858 173.728 9.40497L174.063 8.83838L174.399 8.27179C173.242 7.58613 172.085 6.89865 170.931 6.20865L170.593 6.77393ZM174.063 8.83838L173.728 9.40497C175.201 10.2775 176.676 11.1463 178.153 12.012L178.486 11.4438L178.819 10.8757C177.344 10.0109 175.87 9.1432 174.399 8.27179L174.063 8.83838ZM178.486 11.4438L178.153 12.012C185.408 16.2643 192.709 20.439 200.036 24.5693L200.359 23.9956L200.683 23.422C193.361 19.2942 186.066 15.1233 178.819 10.8757L178.486 11.4438ZM200.359 23.9956L200.036 24.5693C226.275 39.3609 252.812 53.5753 278.753 68.8231L279.087 68.2554L279.421 67.6877C253.469 52.4337 226.886 38.1932 200.683 23.422L200.359 23.9956ZM279.087 68.2554L278.544 68.628L344.738 165.089L345.281 164.716L345.824 164.344L279.63 67.8828L279.087 68.2554ZM345.281 164.716L344.779 165.143C344.916 165.303 345.038 165.447 345.145 165.557C345.241 165.657 345.38 165.794 345.556 165.879L345.843 165.286L346.129 164.693C346.163 164.709 346.176 164.722 346.163 164.712C346.152 164.702 346.131 164.683 346.095 164.646C346.021 164.569 345.925 164.457 345.783 164.29L345.281 164.716ZM345.843 165.286L345.557 165.879C345.688 165.942 345.867 165.991 346.073 165.955L345.959 165.306L345.845 164.658C345.977 164.634 346.08 164.669 346.129 164.692L345.843 165.286ZM345.959 165.306L346.073 165.955C346.26 165.922 346.397 165.832 346.483 165.762C346.568 165.694 346.64 165.616 346.693 165.555L346.197 165.122L345.701 164.689C345.683 164.71 345.67 164.723 345.661 164.732C345.652 164.741 345.652 164.741 345.658 164.736C345.667 164.729 345.732 164.677 345.845 164.658L345.959 165.306ZM346.197 165.122L346.701 165.546L347.076 165.1L346.572 164.676L346.069 164.252L345.694 164.697L346.197 165.122ZM346.572 164.676L347.066 165.112C348.307 163.705 349.813 161.55 351.283 159.358C352.767 157.145 354.214 154.897 355.376 153.233L354.836 152.856L354.296 152.479C353.127 154.154 351.65 156.446 350.189 158.624C348.715 160.823 347.254 162.908 346.078 164.241L346.572 164.676ZM354.836 152.856L355.376 153.233C356.787 151.211 358.058 149.047 359.361 146.967L358.803 146.618L358.245 146.268C356.914 148.392 355.682 150.493 354.296 152.479L354.836 152.856ZM358.803 146.618L359.361 146.967C359.46 146.809 359.558 146.652 359.657 146.496L359.101 146.144L358.544 145.792C358.443 145.951 358.344 146.11 358.245 146.268L358.803 146.618ZM359.101 146.144L359.657 146.496C359.751 146.347 359.846 146.202 359.945 146.048L359.391 145.692L358.836 145.336C358.742 145.483 358.641 145.638 358.544 145.792L359.101 146.144ZM359.391 145.692L359.945 146.048C360.083 145.832 360.223 145.617 360.363 145.403L359.812 145.042L359.262 144.68C359.119 144.898 358.977 145.117 358.836 145.336L359.391 145.692ZM359.812 145.042L360.363 145.403C360.671 144.934 360.982 144.47 361.302 144.015L360.763 143.636L360.224 143.258C359.893 143.728 359.574 144.205 359.262 144.68L359.812 145.042ZM360.763 143.636L361.301 144.015C361.331 143.973 361.385 143.921 361.521 143.805L361.092 143.305L360.663 142.805C360.555 142.898 360.365 143.056 360.224 143.258L360.763 143.636ZM361.092 143.305L361.521 143.805C361.604 143.734 361.73 143.627 361.84 143.506L361.352 143.064L360.863 142.622C360.82 142.67 360.763 142.719 360.663 142.805L361.092 143.305ZM361.352 143.064L361.84 143.506C361.877 143.465 361.917 143.418 361.956 143.364L361.422 142.978L360.888 142.592C360.885 142.597 360.877 142.607 360.863 142.622L361.352 143.064ZM361.422 142.978L361.98 143.328C362.582 142.366 363.186 141.406 363.793 140.447L363.236 140.095L362.68 139.743C362.072 140.704 361.467 141.666 360.864 142.628L361.422 142.978ZM363.236 140.095L363.793 140.447C363.922 140.243 364.051 140.04 364.182 139.834L363.626 139.481L363.07 139.128C362.941 139.332 362.81 139.538 362.68 139.743L363.236 140.095ZM363.626 139.481L364.182 139.834C364.673 139.06 365.165 138.288 365.658 137.515L365.104 137.161L364.549 136.806C364.055 137.579 363.561 138.353 363.07 139.128L363.626 139.481ZM365.104 137.161L365.658 137.515C365.827 137.252 365.992 136.991 366.16 136.73L365.605 136.375L365.051 136.019C364.883 136.281 364.715 136.546 364.549 136.806L365.104 137.161ZM365.605 136.375L366.16 136.73C367.341 134.886 368.528 133.047 369.722 131.211L369.17 130.852L368.618 130.493C367.422 132.331 366.233 134.173 365.051 136.019L365.605 136.375ZM369.17 130.852L369.722 131.211C369.819 131.062 369.916 130.913 370.013 130.764L369.461 130.405L368.909 130.045C368.812 130.195 368.715 130.344 368.618 130.493L369.17 130.852ZM369.461 130.405L370.013 130.764C370.441 130.107 370.871 129.45 371.301 128.793L370.75 128.432L370.199 128.072C369.769 128.729 369.338 129.386 368.909 130.045L369.461 130.405ZM370.75 128.432L371.301 128.793C373.049 126.122 374.808 123.458 376.577 120.8L376.028 120.435L375.48 120.07C373.71 122.731 371.949 125.398 370.199 128.072L370.75 128.432ZM376.028 120.435L376.577 120.8C376.678 120.648 376.772 120.505 376.872 120.355L376.324 119.99L375.776 119.625C375.678 119.771 375.577 119.925 375.48 120.07L376.028 120.435ZM376.324 119.99L376.872 120.355L377.886 118.835L377.338 118.469L376.79 118.104L375.776 119.624L376.324 119.99ZM377.338 118.469L377.886 118.835C378.157 118.429 378.426 118.029 378.699 117.62L378.151 117.254L377.604 116.888C377.335 117.29 377.06 117.699 376.79 118.104L377.338 118.469ZM378.151 117.254L378.699 117.62C379.533 116.373 380.369 115.126 381.207 113.88L380.66 113.512L380.114 113.145C379.276 114.392 378.439 115.64 377.604 116.888L378.151 117.254ZM380.66 113.512L381.207 113.88C381.651 113.219 382.093 112.559 382.537 111.9L381.991 111.532L381.445 111.164C381 111.824 380.557 112.485 380.114 113.145L380.66 113.512ZM381.991 111.532L382.537 111.9C383.576 110.358 384.617 108.818 385.658 107.278L385.112 106.909L384.567 106.54C383.525 108.08 382.484 109.621 381.445 111.164L381.991 111.532ZM385.112 106.909L385.658 107.278C388.514 103.053 391.377 98.8366 394.235 94.6168L393.689 94.2476L393.144 93.8783C390.287 98.0962 387.423 102.315 384.567 106.54L385.112 106.909ZM393.689 94.2476L394.235 94.6171C398.193 88.7767 402.072 82.8033 406.005 76.9529L405.459 76.5854L404.913 76.218C400.95 82.1119 397.115 88.0207 393.144 93.8781L393.689 94.2476ZM405.459 76.5854L406.005 76.9529C406.923 75.5887 407.843 74.2282 408.771 72.8751L408.229 72.5024L407.686 72.1298C406.753 73.4877 405.831 74.8521 404.912 76.218L405.459 76.5854ZM408.229 72.5024L408.771 72.8751C409.123 72.3624 409.476 71.8507 409.829 71.3405L409.288 70.9653L408.747 70.5901C408.392 71.1027 408.038 71.6162 407.686 72.1298L408.229 72.5024ZM409.288 70.9653L409.829 71.3405C410.183 70.8303 410.539 70.3211 410.896 69.8121L410.356 69.4341L409.817 69.056C409.46 69.5661 409.102 70.0773 408.747 70.5901L409.288 70.9653ZM410.356 69.4341L410.663 70.0167L413.249 68.6544L412.942 68.0718L412.635 67.4892L410.05 68.8515L410.356 69.4341ZM412.942 68.0718L413.249 68.6544L422.313 63.879L422.006 63.2964L421.699 62.7138L412.635 67.4892L412.942 68.0718ZM422.006 63.2964H422.664V63.2837H422.006H421.347V63.2964H422.006ZM422.006 63.2837L422.334 63.8546L532.308 0.642707L531.979 0.0717773L531.651 -0.499153L421.678 62.7128L422.006 63.2837ZM531.979 0.0717773L531.332 -0.0488681L531.103 1.18258L531.75 1.30322L532.397 1.42387L532.627 0.192423L531.979 0.0717773ZM531.75 1.30322L531.103 1.17815C530.712 3.20164 530.257 5.15768 529.739 7.05023L530.374 7.22412L531.009 7.39801C531.536 5.47193 531.999 3.48326 532.397 1.42829L531.75 1.30322ZM530.374 7.22412L529.739 7.05023C529.466 8.04722 529.173 9.02691 528.865 9.99159L529.492 10.1919L530.12 10.3922C530.432 9.41198 530.731 8.4146 531.009 7.39801L530.374 7.22412ZM529.492 10.1919L528.865 9.9916C522.415 30.1933 508.428 43.0694 489.29 54.273L489.623 54.8413L489.956 55.4096C509.235 44.1232 523.531 31.0287 530.12 10.3922L529.492 10.1919ZM489.623 54.8413L489.29 54.2731C488.314 54.8447 487.335 55.4127 486.353 55.9775L486.682 56.5483L487.01 57.1191C487.995 56.5527 488.977 55.9831 489.956 55.4095L489.623 54.8413ZM486.682 56.5483L486.353 55.9775C485.372 56.5421 484.388 57.1032 483.401 57.6618L483.726 58.2349L484.05 58.8079C485.039 58.248 486.026 57.6854 487.01 57.1191L486.682 56.5483ZM483.726 58.2349L483.401 57.6618C479.454 59.8964 475.47 62.0849 471.469 64.2525L471.782 64.8315L472.096 65.4106C476.102 63.2406 480.094 61.048 484.05 58.8079L483.726 58.2349ZM471.782 64.8315L471.469 64.2525C467.467 66.4203 463.449 68.5669 459.432 70.7168L459.743 71.2974L460.054 71.8779C464.069 69.7289 468.09 67.5804 472.096 65.4106L471.782 64.8315ZM459.743 71.2974L459.432 70.7168C456.42 72.3289 453.409 73.9427 450.409 75.569L450.723 76.1479L451.036 76.7269C454.034 75.1024 457.042 73.49 460.054 71.878L459.743 71.2974ZM450.723 76.1479L450.409 75.569C448.408 76.6533 446.413 77.7439 444.425 78.842L444.743 79.4185L445.061 79.9949C447.047 78.8987 449.039 77.8097 451.036 76.7269L450.723 76.1479ZM444.743 79.4185L444.425 78.842C443.431 79.3911 442.438 79.9422 441.447 80.496L441.769 81.0708L442.09 81.6456C443.078 81.0931 444.069 80.5431 445.061 79.9949L444.743 79.4185ZM441.769 81.0708L441.447 80.4961C440.842 80.8347 440.234 81.1699 439.623 81.5038L439.939 82.0815L440.256 82.6593C440.868 82.3241 441.48 81.9868 442.09 81.6455L441.769 81.0708ZM439.939 82.0815L439.623 81.5038C437.796 82.5035 435.955 83.4826 434.109 84.4696L434.42 85.0503L434.73 85.631C436.572 84.6461 438.421 83.6628 440.256 82.6593L439.939 82.0815ZM434.42 85.0503L434.109 84.4696C431.643 85.7886 429.172 87.1203 426.742 88.5208L427.07 89.0913L427.399 89.6619C429.809 88.2728 432.264 86.9498 434.73 85.631L434.42 85.0503ZM427.07 89.0913L426.555 88.6814C425.996 89.3836 425.423 90.1121 424.835 90.865L425.354 91.27L425.874 91.6751C426.459 90.9254 427.03 90.2001 427.586 89.5012L427.07 89.0913ZM425.354 91.27L424.835 90.865C422.058 94.4251 418.976 98.5258 415.743 102.92L416.273 103.31L416.804 103.7C420.032 99.3123 423.107 95.2222 425.874 91.6751L425.354 91.27ZM416.273 103.31L415.743 102.92C415.654 103.041 415.564 103.163 415.474 103.285L416.005 103.675L416.536 104.065C416.625 103.943 416.715 103.822 416.804 103.7L416.273 103.31ZM416.005 103.675L415.474 103.285C407.749 113.797 399.19 125.952 391.901 136.431L392.441 136.807L392.982 137.183C400.269 126.707 408.821 114.563 416.536 104.065L416.005 103.675ZM392.441 136.807L391.901 136.431C389.652 139.664 387.524 142.738 385.578 145.556L386.12 145.93L386.662 146.304C388.607 143.488 390.734 140.415 392.982 137.183L392.441 136.807ZM386.12 145.93L385.578 145.556C381.955 150.803 378.96 155.161 377.003 157.998L377.545 158.372L378.087 158.745C380.046 155.905 383.038 151.552 386.662 146.304L386.12 145.93ZM377.545 158.372L377.003 157.998C376.034 159.402 375.321 160.431 374.909 161.012L375.446 161.393L375.983 161.774C376.402 161.185 377.12 160.148 378.087 158.745L377.545 158.372ZM375.446 161.393L374.909 161.012C374.814 161.146 374.743 161.247 374.685 161.327L375.217 161.715L375.749 162.104C375.814 162.014 375.895 161.898 375.983 161.774L375.446 161.393ZM375.217 161.715L374.694 161.315L374.524 161.536L375.047 161.937L375.57 162.338L375.739 162.116L375.217 161.715ZM375.047 161.937L375.527 162.388C375.52 162.395 375.505 162.411 375.482 162.43C375.471 162.44 375.453 162.454 375.431 162.47C375.41 162.484 375.374 162.507 375.326 162.528L375.061 161.925L374.795 161.323C374.706 161.362 374.647 161.412 374.628 161.428C374.601 161.451 374.58 161.472 374.567 161.486L375.047 161.937ZM375.061 161.925L375.352 162.516C375.384 162.5 375.408 162.485 375.422 162.476C375.445 162.461 375.406 162.487 375.372 162.505C375.371 162.506 375.263 162.57 375.111 162.581C375.018 162.588 374.86 162.579 374.703 162.477C374.542 162.372 374.467 162.226 374.435 162.125C374.405 162.032 374.403 161.954 374.403 161.919C374.404 161.88 374.408 161.848 374.41 161.832C374.414 161.802 374.42 161.778 374.42 161.777C374.424 161.76 374.419 161.782 374.417 161.79C374.411 161.82 374.405 161.857 374.404 161.898L375.062 161.926L375.719 161.954C375.718 161.994 375.712 162.03 375.706 162.06C375.705 162.068 375.7 162.089 375.704 162.072C375.704 162.072 375.709 162.048 375.714 162.017C375.716 162.001 375.72 161.97 375.72 161.93C375.721 161.895 375.719 161.817 375.689 161.724C375.657 161.623 375.581 161.477 375.421 161.372C375.263 161.27 375.106 161.261 375.012 161.268C374.861 161.279 374.752 161.343 374.751 161.344C374.717 161.362 374.678 161.388 374.701 161.374C374.714 161.365 374.738 161.35 374.769 161.335L375.061 161.925ZM375.062 161.926L375.271 162.551C375.16 162.588 374.814 162.653 374.56 162.35C374.385 162.142 374.406 161.912 374.407 161.891C374.411 161.827 374.424 161.78 374.428 161.764C374.434 161.743 374.44 161.727 374.442 161.72C374.45 161.698 374.454 161.694 374.439 161.723C374.415 161.771 374.37 161.855 374.301 161.978C374.165 162.222 373.953 162.589 373.673 163.066C373.113 164.019 372.29 165.399 371.273 167.091C369.241 170.475 366.443 175.099 363.458 180.033C357.491 189.897 350.771 201.009 347.94 205.91L348.511 206.24L349.081 206.569C351.903 201.682 358.613 190.586 364.585 180.715C367.569 175.781 370.369 171.155 372.402 167.769C373.419 166.077 374.246 164.692 374.809 163.733C375.09 163.254 375.308 162.877 375.451 162.62C375.522 162.494 375.579 162.388 375.618 162.31C375.635 162.276 375.659 162.225 375.678 162.174C375.681 162.166 375.716 162.079 375.722 161.97C375.724 161.945 375.744 161.713 375.569 161.504C375.313 161.199 374.965 161.264 374.852 161.302L375.062 161.926ZM348.511 206.24L347.94 205.91C347.56 206.569 347.242 207.121 347.01 207.545L347.587 207.862L348.164 208.179C348.388 207.77 348.699 207.231 349.081 206.569L348.511 206.24ZM347.587 207.862L347.01 207.545C346.897 207.75 346.804 207.926 346.731 208.069L347.316 208.37L347.902 208.671C347.97 208.539 348.057 208.374 348.164 208.179L347.587 207.862ZM347.316 208.37L347.858 207.995L339.968 196.609L339.427 196.984L338.885 197.359L346.775 208.745L347.316 208.37ZM339.427 196.984H340.085V196.964H339.427H338.768V196.984H339.427ZM339.427 196.964L339.969 196.591L304.419 144.906L303.876 145.279L303.333 145.652L338.884 197.338L339.427 196.964ZM303.876 145.279L304.419 144.906L266.491 89.765L265.948 90.1382L265.406 90.5114L303.333 145.652L303.876 145.279ZM265.948 90.1382L266.333 89.604C254.855 81.3312 239.964 74.2753 225.096 66.8509C210.196 59.4104 195.302 51.5923 183.679 41.7719L183.254 42.2749L182.829 42.7779C194.589 52.7134 209.618 60.5936 224.508 68.0292C239.43 75.4808 254.194 82.4787 265.563 90.6724L265.948 90.1382ZM183.254 42.2749L183.682 41.7742L182.991 41.1844L182.563 41.6851L182.136 42.1857L182.826 42.7756L183.254 42.2749ZM182.563 41.6851L182.993 41.1861C182.765 40.9894 182.539 40.7935 182.315 40.5966L181.88 41.0913L181.445 41.586C181.674 41.787 181.904 41.9861 182.134 42.184L182.563 41.6851ZM181.88 41.0913L182.315 40.5966C181.866 40.2022 181.422 39.8039 180.984 39.4025L180.539 39.8882L180.094 40.3739C180.539 40.781 180.989 41.1853 181.445 41.586L181.88 41.0913ZM180.539 39.8882L180.984 39.4025C180.107 38.5999 179.253 37.7848 178.422 36.9555L177.957 37.4214L177.492 37.8873C178.336 38.7309 179.205 39.5593 180.094 40.3739L180.539 39.8882ZM177.957 37.4214L178.422 36.9555C176.969 35.5037 175.589 34.0096 174.292 32.4689L173.788 32.8931L173.284 33.3173C174.608 34.889 176.014 36.4108 177.492 37.8873L177.957 37.4214ZM173.788 32.8931L174.292 32.4689C173.551 31.5888 172.837 30.6929 172.15 29.7812L171.624 30.1772L171.098 30.5733C171.799 31.5044 172.528 32.4191 173.284 33.3173L173.788 32.8931ZM171.624 30.1772L172.15 29.7812C171.978 29.5525 171.808 29.3239 171.64 29.0944L171.108 29.4829L170.577 29.8714C170.749 30.1071 170.923 30.341 171.098 30.5733L171.624 30.1772ZM171.108 29.4829L171.64 29.0944C171.304 28.6347 170.976 28.1709 170.654 27.7029L170.111 28.0757L169.568 28.4485C169.897 28.9271 170.233 29.4014 170.577 29.8714L171.108 29.4829ZM170.111 28.0757L170.654 27.7029C170.333 27.2347 170.018 26.7628 169.712 26.2868L169.158 26.6431L168.604 26.9993C168.918 27.4872 169.24 27.9701 169.568 28.4485L170.111 28.0757ZM169.158 26.6431L169.712 26.2868C169.253 25.5725 168.81 24.8481 168.385 24.114L167.815 24.4438L167.245 24.7737C167.681 25.5257 168.134 26.2676 168.604 26.9993L169.158 26.6431ZM167.815 24.4438L168.386 24.1143C168.151 23.7087 167.92 23.3004 167.692 22.89L167.116 23.2095L166.54 23.529C166.772 23.9463 167.007 24.3613 167.245 24.7734L167.815 24.4438ZM167.116 23.2095L167.692 22.89C167.465 22.4802 167.241 22.0674 167.02 21.652L166.438 21.9614L165.857 22.2708C166.081 22.6921 166.309 23.1117 166.54 23.529L167.116 23.2095ZM166.438 21.9614L167.02 21.652C166.578 20.8218 166.149 19.9826 165.735 19.1352L165.144 19.4243L164.552 19.7135C164.973 20.5747 165.408 21.4274 165.857 22.2708L166.438 21.9614ZM165.144 19.4243L165.735 19.1352C164.907 17.4397 164.134 15.7115 163.422 13.9586L162.812 14.2065L162.201 14.4545C162.925 16.2353 163.71 17.991 164.552 19.7135L165.144 19.4243ZM162.812 14.2065L163.422 13.9586C162.709 12.2057 162.057 10.428 161.467 8.63387L160.842 8.83936L160.216 9.04484C160.815 10.8677 161.478 12.6737 162.201 14.4545L162.812 14.2065ZM160.842 8.83936L161.467 8.63386C161.173 7.73671 160.894 6.83549 160.631 5.93118L159.999 6.11475L159.367 6.29831C159.633 7.21746 159.917 8.13329 160.216 9.04485L160.842 8.83936ZM159.999 6.11475L160.631 5.93118C160.369 5.02697 160.123 4.11976 159.893 3.21051L159.255 3.37158L158.616 3.53265C158.85 4.4572 159.1 5.3794 159.367 6.29831L159.999 6.11475ZM159.255 3.37158L159.892 3.20563C159.868 3.11169 159.826 2.97488 159.784 2.83291C159.739 2.68376 159.687 2.51079 159.636 2.32359L159.001 2.49951L158.366 2.67544C158.422 2.87671 158.477 3.06077 158.522 3.21104C158.569 3.36849 158.601 3.47348 158.618 3.53754L159.255 3.37158ZM159.001 2.49951L159.636 2.32365C159.584 2.13667 159.532 1.93705 159.487 1.73692L158.845 1.88135L158.202 2.02578C158.253 2.25218 158.31 2.47343 158.366 2.67538L159.001 2.49951ZM158.845 1.88135L159.487 1.73684C159.465 1.63881 159.445 1.54005 159.427 1.44225L158.779 1.56201L158.132 1.68177C158.153 1.79614 158.177 1.91141 158.202 2.02586L158.845 1.88135ZM158.779 1.56201L159.427 1.44234C159.35 1.02501 159.337 0.727864 159.371 0.574389L158.729 0.431152L158.086 0.287916C157.989 0.721686 158.052 1.24771 158.132 1.68168L158.779 1.56201ZM213.839 115.313L213.573 115.915C231.22 123.706 249.292 130.693 266.559 138.962L266.844 138.368L267.128 137.774C249.849 129.5 231.663 122.462 214.105 114.711L213.839 115.313ZM266.844 138.368V139.026H266.857V138.368V137.709H266.844V138.368ZM266.857 138.368L266.606 138.976L281.745 145.225L281.996 144.617L282.247 144.008L267.109 137.759L266.857 138.368ZM281.996 144.617L281.614 144.081C280.889 144.598 279.786 144.963 278.553 145.211C277.337 145.456 276.068 145.574 275.066 145.639L275.108 146.296L275.151 146.954C276.177 146.887 277.513 146.764 278.813 146.502C280.097 146.243 281.424 145.834 282.379 145.153L281.996 144.617ZM275.108 146.296L275.066 145.639C266.803 146.166 255.71 144.358 248.005 141.362L247.767 141.976L247.528 142.59C255.404 145.652 266.687 147.493 275.15 146.954L275.108 146.296ZM247.767 141.976L248.006 141.362C243.676 139.677 238.214 136.982 235.038 133.941L234.583 134.417L234.128 134.892C237.498 138.12 243.165 140.891 247.528 142.59L247.767 141.976ZM234.583 134.417L234.919 133.85C226.713 128.976 219.385 122.725 213.365 115.236L212.852 115.649L212.338 116.062C218.461 123.679 225.911 130.032 234.247 134.983L234.583 134.417ZM212.852 115.649L213.064 116.272L214.051 115.936L213.839 115.313L213.627 114.69L212.639 115.026L212.852 115.649ZM479.957 115.649L479.444 115.236C473.424 122.725 466.096 128.976 457.889 133.85L458.226 134.417L458.562 134.983C466.897 130.032 474.347 123.679 480.47 116.062L479.957 115.649ZM458.226 134.417L457.77 133.941C454.595 136.982 449.132 139.677 444.803 141.362L445.042 141.976L445.281 142.59C449.644 140.891 455.31 138.12 458.681 134.892L458.226 134.417ZM445.042 141.976L444.803 141.362C437.098 144.358 426.006 146.166 417.742 145.639L417.7 146.296L417.658 146.954C426.121 147.493 437.405 145.652 445.281 142.59L445.042 141.976ZM417.7 146.296L417.743 145.639C416.741 145.574 415.472 145.456 414.256 145.211C413.023 144.963 411.919 144.598 411.195 144.081L410.812 144.617L410.43 145.153C411.385 145.834 412.711 146.243 413.995 146.502C415.296 146.764 416.631 146.887 417.658 146.954L417.7 146.296ZM410.812 144.617L411.064 145.225L426.203 138.976L425.952 138.368L425.701 137.759L410.561 144.008L410.812 144.617ZM425.952 138.368V139.026H425.965V138.368V137.709H425.952V138.368ZM425.965 138.368L426.249 138.962C443.517 130.693 461.589 123.706 479.236 115.915L478.97 115.313L478.704 114.711C461.146 122.462 442.959 129.5 425.68 137.774L425.965 138.368ZM478.97 115.313L478.758 115.936L479.745 116.272L479.957 115.649L480.169 115.026L479.182 114.69L478.97 115.313ZM306.782 7.32666L306.5 7.92141C309.406 9.30283 311.894 10.6337 315.16 11.5747L315.343 10.9419L315.525 10.3091C312.391 9.40627 310.033 8.14253 307.065 6.73191L306.782 7.32666ZM315.343 10.9419L315.16 11.5746C318.253 12.467 321.361 12.8536 324.473 13.2475L324.556 12.5942L324.638 11.9409C321.508 11.5447 318.504 11.1684 315.525 10.3092L315.343 10.9419ZM324.556 12.5942L324.473 13.2475C326.702 13.5303 328.814 13.7977 331.108 13.9111L331.141 13.2534L331.173 12.5957C328.937 12.4852 326.874 12.2245 324.639 11.9409L324.556 12.5942ZM331.141 13.2534L331.111 13.9113C331.354 13.9223 331.597 13.9166 331.814 13.9118C332.039 13.9067 332.237 13.9026 332.428 13.9113L332.458 13.2534L332.488 12.5956C332.244 12.5845 332.001 12.5902 331.785 12.5951C331.56 12.6001 331.362 12.6043 331.171 12.5956L331.141 13.2534ZM332.458 13.2534L332.432 13.9114C337.267 14.1061 342.001 13.9153 346.631 13.9355C351.286 13.9558 355.9 14.1872 360.635 15.2134L360.774 14.5698L360.914 13.9262C356.047 12.8715 351.327 12.639 346.636 12.6185C341.92 12.5978 337.297 12.7892 332.485 12.5954L332.458 13.2534ZM360.774 14.5698L360.634 15.2133C363.911 15.9261 366.352 16.6787 368.513 17.8674C370.667 19.0525 372.581 20.6925 374.762 23.2305L375.262 22.8013L375.761 22.372C373.511 19.7541 371.48 17.9961 369.148 16.7134C366.823 15.4342 364.236 14.6491 360.914 13.9264L360.774 14.5698ZM375.262 22.8013L374.761 23.2295C375.079 23.6 375.352 24.2144 375.678 24.9188C375.829 25.2469 375.993 25.5922 376.17 25.885C376.337 26.1616 376.567 26.483 376.888 26.674L377.225 26.1079L377.561 25.5418C377.533 25.5254 377.442 25.4441 377.298 25.2049C377.163 24.9818 377.027 24.698 376.873 24.3658C376.588 23.7494 376.228 22.9179 375.762 22.373L375.262 22.8013ZM377.225 26.1079L376.888 26.6737C377.089 26.7938 377.361 26.8911 377.634 26.9744C377.922 27.0618 378.265 27.1493 378.643 27.2374C379.397 27.4131 380.33 27.6006 381.285 27.7986C383.237 28.2032 385.25 28.6472 386.364 29.1504L386.635 28.5503L386.906 27.9502C385.63 27.3735 383.451 26.9025 381.553 26.509C380.583 26.308 379.675 26.1256 378.942 25.9547C378.576 25.8694 378.265 25.7895 378.018 25.7144C377.758 25.6352 377.617 25.5751 377.562 25.5421L377.225 26.1079ZM386.635 28.5503L386.364 29.1504C392.811 32.0625 396.754 38.0832 396.362 45.1878L397.02 45.2241L397.677 45.2604C398.101 37.5748 393.813 31.0701 386.906 27.9501L386.635 28.5503ZM397.02 45.2241L396.362 45.1879C396.318 45.9956 396.251 46.6177 396.165 47.0887C396.078 47.568 395.979 47.8501 395.892 48.0049C395.812 48.1487 395.784 48.1135 395.844 48.1004C395.877 48.0933 395.837 48.1167 395.666 48.0311C395.503 47.949 395.298 47.8066 395.037 47.599C394.777 47.3922 394.502 47.1539 394.181 46.8841C393.557 46.3605 392.803 45.7526 391.946 45.326L391.652 45.9155L391.359 46.505C392.063 46.8555 392.714 47.3721 393.333 47.8924C393.633 48.1446 393.938 48.4082 394.217 48.6297C394.494 48.8503 394.786 49.0627 395.075 49.2081C395.358 49.3501 395.728 49.474 396.126 49.387C396.552 49.2938 396.846 48.9981 397.042 48.6472C397.232 48.3074 397.363 47.8609 397.461 47.324C397.56 46.7789 397.631 46.0973 397.677 45.2603L397.02 45.2241ZM391.652 45.9155L391.946 45.3261C387.604 43.1621 381.842 42.7011 376.508 43.8124C371.176 44.9233 366.151 47.6324 363.375 51.9469L363.929 52.3032L364.482 52.6596C367.007 48.7362 371.663 46.1673 376.777 45.1018C381.889 44.0367 387.337 44.5008 391.359 46.5049L391.652 45.9155ZM363.929 52.3032L363.375 51.9468C355.259 64.5547 360.145 80.1958 371.616 88.4835L372.002 87.9497L372.388 87.4159C361.364 79.4512 356.82 64.5619 364.482 52.6597L363.929 52.3032ZM372.002 87.9497L371.671 88.5193L376.209 91.153L376.54 90.5835L376.871 90.0139L372.333 87.3802L372.002 87.9497ZM376.54 90.5835L375.992 90.2186C369.453 100.04 363.054 109.923 356.278 119.548L356.816 119.927L357.355 120.306C364.144 110.663 370.562 100.751 377.088 90.9484L376.54 90.5835ZM356.816 119.927L356.27 119.56L344.752 136.675L345.299 137.042L345.845 137.41L357.363 120.295L356.816 119.927ZM345.299 137.042L345.84 136.667C331.869 116.534 318.156 96.1988 304.885 75.6144L304.332 75.9712L303.779 76.328C317.059 96.9276 330.781 117.276 344.758 137.418L345.299 137.042ZM304.332 75.9712V76.6297H304.346V75.9712V75.3127H304.332V75.9712ZM304.346 75.9712L304.899 75.6139C304.398 74.8387 303.9 74.2294 303.44 73.693C302.972 73.1469 302.572 72.7085 302.211 72.2223C301.526 71.3008 301 70.2301 300.82 68.2076L300.164 68.2661L299.508 68.3246C299.71 70.5825 300.32 71.8859 301.153 73.0077C301.551 73.5432 302.006 74.0437 302.441 74.5506C302.884 75.0673 303.338 75.6253 303.793 76.3285L304.346 75.9712ZM300.164 68.2661L300.82 68.2071C300.098 60.1829 303.147 49.7266 306.714 42.5131L306.124 42.2212L305.534 41.9293C301.91 49.256 298.756 59.9652 299.508 68.3252L300.164 68.2661ZM306.124 42.2212L306.714 42.5131C310.492 34.8745 315.494 29.7592 321.707 23.934L321.257 23.4536L320.806 22.9732C314.574 28.8169 309.422 34.0667 305.534 41.9293L306.124 42.2212ZM321.257 23.4536L321.556 22.8668C314.887 19.4705 309.188 14.4643 307.422 7.17166L306.782 7.32666L306.142 7.48166C308.038 15.3083 314.127 20.5618 320.958 24.0404L321.257 23.4536ZM182.699 56.2407L183.34 56.0892C183.276 55.8179 183.223 55.623 183.187 55.4344C183.15 55.239 183.159 55.1735 183.159 55.1736C183.156 55.1866 183.143 55.2307 183.1 55.2778C183.057 55.3263 183.013 55.3449 182.999 55.3493C182.999 55.3495 183.103 55.3237 183.415 55.385L183.542 54.7388L183.669 54.0926C183.293 54.0189 182.919 53.9915 182.595 54.0957C182.42 54.1521 182.254 54.2492 182.119 54.399C181.986 54.5475 181.914 54.7158 181.877 54.8725C181.81 55.16 181.852 55.4597 181.893 55.6795C181.936 55.9061 182.007 56.1763 182.058 56.3923L182.699 56.2407ZM183.542 54.7388L183.197 55.2996C193.124 61.4086 203.287 67.1374 213.442 72.8501C223.6 78.5649 233.749 84.2635 243.664 90.3212L244.008 89.7593L244.351 89.1973C234.412 83.125 224.242 77.4146 214.088 71.7023C203.93 65.9879 193.789 60.2714 183.887 54.1779L183.542 54.7388ZM244.008 89.7593L243.665 90.3212C254.271 96.8003 260.014 101.534 267.93 111.184L268.439 110.766L268.949 110.348C260.928 100.572 255.068 95.7438 244.351 89.1973L244.008 89.7593ZM268.439 110.766L267.93 111.184C268.671 112.086 273.35 118.242 277.695 124.296C279.866 127.322 281.945 130.31 283.401 132.595C284.131 133.741 284.693 134.693 285.032 135.377C285.205 135.725 285.303 135.971 285.345 136.126C285.366 136.206 285.36 136.22 285.362 136.191C285.363 136.166 285.379 135.985 285.562 135.849L285.956 136.376L286.35 136.904C286.611 136.709 286.668 136.428 286.677 136.262C286.686 136.092 286.654 135.925 286.617 135.786C286.542 135.503 286.396 135.162 286.212 134.792C285.841 134.042 285.247 133.043 284.511 131.888C283.035 129.571 280.94 126.559 278.765 123.528C274.418 117.47 269.717 111.285 268.948 110.348L268.439 110.766ZM285.956 136.376L285.862 135.725C284.642 135.9 283.655 135.657 282.394 135.243L282.188 135.869L281.983 136.494C283.29 136.923 284.518 137.248 286.05 137.028L285.956 136.376ZM282.188 135.869L282.393 135.243C278.434 133.949 273.232 131.214 267.962 128.245C262.723 125.294 257.414 122.111 253.332 119.994L253.029 120.579L252.726 121.163C256.784 123.267 262.024 126.412 267.315 129.392C272.575 132.355 277.883 135.154 281.984 136.495L282.188 135.869ZM253.029 120.579L253.333 119.994C250.066 118.299 246.72 116.707 243.403 115.104C240.082 113.498 236.785 111.879 233.591 110.124L233.273 110.701L232.956 111.278C236.183 113.052 239.507 114.683 242.83 116.289C246.158 117.898 249.48 119.48 252.726 121.163L253.029 120.579ZM233.273 110.701L233.591 110.124C211.167 97.7831 189.461 82.2891 183.34 56.0909L182.699 56.2407L182.058 56.3905C188.318 83.1898 210.508 98.9237 232.956 111.278L233.273 110.701ZM509.274 54.7388L509.401 55.385C509.714 55.3237 509.818 55.3495 509.817 55.3493C509.804 55.3449 509.76 55.3263 509.716 55.2778C509.674 55.2306 509.66 55.1865 509.657 55.1735C509.657 55.1735 509.666 55.2389 509.629 55.4344C509.594 55.6229 509.54 55.8179 509.476 56.0892L510.117 56.2407L510.758 56.3923C510.809 56.1763 510.88 55.9061 510.923 55.6795C510.965 55.4597 511.007 55.16 510.939 54.8725C510.903 54.7158 510.83 54.5474 510.697 54.3989C510.563 54.2491 510.396 54.1521 510.221 54.0957C509.897 53.9914 509.523 54.0189 509.148 54.0926L509.274 54.7388ZM510.117 56.2407L509.476 56.0909C503.356 82.2891 481.649 97.7831 459.225 110.124L459.543 110.701L459.86 111.278C482.308 98.9237 504.498 83.1898 510.758 56.3905L510.117 56.2407ZM459.543 110.701L459.226 110.124C456.032 111.879 452.735 113.498 449.413 115.104C446.096 116.707 442.751 118.299 439.484 119.994L439.787 120.579L440.09 121.163C443.336 119.48 446.659 117.898 449.986 116.289C453.309 114.683 456.634 113.052 459.86 111.278L459.543 110.701ZM439.787 120.579L439.484 119.994C435.402 122.111 430.093 125.294 424.855 128.245C419.584 131.214 414.383 133.949 410.423 135.243L410.628 135.869L410.833 136.495C414.933 135.154 420.242 132.355 425.501 129.392C430.792 126.412 436.033 123.267 440.09 121.163L439.787 120.579ZM410.628 135.869L410.423 135.243C409.162 135.657 408.175 135.9 406.955 135.725L406.861 136.376L406.768 137.028C408.3 137.248 409.526 136.923 410.833 136.494L410.628 135.869ZM406.861 136.376L407.255 135.849C407.438 135.985 407.454 136.166 407.455 136.191C407.457 136.22 407.451 136.206 407.473 136.126C407.514 135.972 407.613 135.725 407.785 135.377C408.124 134.693 408.687 133.741 409.417 132.595C410.873 130.31 412.951 127.322 415.122 124.296C419.467 118.241 424.147 112.085 424.887 111.184L424.378 110.766L423.869 110.348C423.101 111.284 418.4 117.469 414.052 123.528C411.877 126.559 409.782 129.571 408.306 131.888C407.57 133.043 406.977 134.043 406.605 134.792C406.421 135.162 406.276 135.503 406.2 135.786C406.163 135.925 406.131 136.092 406.14 136.262C406.149 136.428 406.207 136.71 406.468 136.904L406.861 136.376ZM424.378 110.766L424.887 111.184C432.803 101.534 438.546 96.8002 449.152 90.3212L448.809 89.7593L448.465 89.1973C437.749 95.7438 431.889 100.572 423.869 110.348L424.378 110.766ZM448.809 89.7593L449.152 90.3212C459.067 84.2635 469.216 78.5649 479.374 72.8501C489.529 67.1374 499.693 61.4086 509.62 55.2996L509.274 54.7388L508.929 54.1779C499.028 60.2714 488.886 65.9879 478.728 71.7023C468.575 77.4146 458.404 83.125 448.465 89.1973L448.809 89.7593Z" fill="#F5E1B2" mask="url(#path-2-inside-1_1_613)"/>
<defs>
<linearGradient id="paint0_linear_1_613" x1="761.404" y1="251.062" x2="694.677" y2="276.405" gradientUnits="userSpaceOnUse">
<stop stop-color="#F5E1B2"/>
<stop offset="1" stop-color="#AD8432"/>
</linearGradient>
<linearGradient id="paint1_linear_1_613" x1="543" y1="54.5" x2="406.711" y2="94.2015" gradientUnits="userSpaceOnUse">
<stop stop-color="#F5E1B2"/>
<stop offset="1" stop-color="#AD8432"/>
</linearGradient>
</defs>
</svg>
